<svg xmlns="http://www.w3.org/2000/svg" xmlns:xlink="http://www.w3.org/1999/xlink" viewBox="0 0 363.96 77.42"><defs><style>.cls-1{fill:url(#linear-gradient);}.cls-2{fill:url(#linear-gradient-2);}.cls-3{fill:url(#linear-gradient-3);}.cls-4{fill:url(#linear-gradient-4);}.cls-5{fill:url(#linear-gradient-5);}.cls-6{fill:url(#linear-gradient-6);}.cls-7{fill:url(#linear-gradient-7);}.cls-8{fill:url(#linear-gradient-8);}.cls-9{fill:url(#linear-gradient-9);}.cls-10{fill:url(#linear-gradient-10);}.cls-11{fill:url(#linear-gradient-11);}.cls-12{fill:url(#linear-gradient-12);}.cls-13{fill:url(#linear-gradient-13);}.cls-14{fill:url(#linear-gradient-14);}</style><linearGradient id="linear-gradient" x1="21.83" y1="41.9" x2="38.77" y2="52.49" gradientUnits="userSpaceOnUse"><stop offset="0" stop-color="#81e6d9"/><stop offset="1" stop-color="#9ae6b4"/></linearGradient><linearGradient id="linear-gradient-2" x1="23.94" y1="34.46" x2="42.79" y2="34.46" xlink:href="#linear-gradient"/><linearGradient id="linear-gradient-3" x1="46.9" y1="33.67" x2="81.55" y2="33.67" gradientTransform="translate(11.65 -16.28) rotate(15.87)" xlink:href="#linear-gradient"/><linearGradient id="linear-gradient-4" x1="0" y1="74.05" x2="82.49" y2="74.05" xlink:href="#linear-gradient"/><linearGradient id="linear-gradient-5" x1="123.39" y1="-14.32" x2="130.45" y2="112.03" xlink:href="#linear-gradient"/><linearGradient id="linear-gradient-6" x1="149.42" y1="-15.78" x2="156.48" y2="110.58" xlink:href="#linear-gradient"/><linearGradient id="linear-gradient-7" x1="177.09" y1="-17.32" x2="184.14" y2="109.03" xlink:href="#linear-gradient"/><linearGradient id="linear-gradient-8" x1="201.32" y1="-18.68" x2="208.38" y2="107.68" xlink:href="#linear-gradient"/><linearGradient id="linear-gradient-9" x1="222.48" y1="-19.86" x2="229.54" y2="106.49" xlink:href="#linear-gradient"/><linearGradient id="linear-gradient-10" x1="248.85" y1="-21.33" x2="255.91" y2="105.02" xlink:href="#linear-gradient"/><linearGradient id="linear-gradient-11" x1="275.7" y1="-22.83" x2="282.76" y2="103.52" xlink:href="#linear-gradient"/><linearGradient id="linear-gradient-12" x1="303.06" y1="-24.36" x2="310.12" y2="101.99" xlink:href="#linear-gradient"/><linearGradient id="linear-gradient-13" x1="327.36" y1="-25.72" x2="334.41" y2="100.63" xlink:href="#linear-gradient"/><linearGradient id="linear-gradient-14" x1="350.15" y1="-26.99" x2="357.21" y2="99.36" xlink:href="#linear-gradient"/></defs><g id="Layer_2" data-name="Layer 2"><g id="Layer_1-2" data-name="Layer 1"><rect class="cls-1" y="0.99" width="18.86" height="66.33" rx="3.45"/><rect class="cls-2" x="23.94" y="1.29" width="18.86" height="66.33" rx="3.45"/><rect class="cls-3" x="54.79" y="0.5" width="18.86" height="66.33" rx="3.45" transform="translate(-6.76 18.84) rotate(-15.87)"/><rect class="cls-4" y="70.68" width="82.49" height="6.73" rx="3.37"/><path class="cls-5" d="M136.59,58.49q0,2.11-3,3.63a18,18,0,0,1-14.45,0q-3-1.51-3-3.63V19.32q0-2.1,3-3.62a18,18,0,0,1,14.45,0q3,1.52,3,3.62v7c0,.61-1.2.91-3.6.91s-3.6-.3-3.6-.91V22.16q0-1.59-3-1.59c-2,0-3,.51-3,1.54v33.6c0,1,1,1.53,3,1.53s3-.52,3-1.58V51.48c0-.6,1.2-.91,3.6-.91s3.6.31,3.6.91Z"/><path class="cls-6" d="M163,58.49q0,2.11-3,3.63a18,18,0,0,1-14.44,0q-3-1.51-3-3.63V31.32q0-2.1,3-3.62a18,18,0,0,1,14.44,0q3,1.52,3,3.62Zm-7.2-2.78V34.16c0-1.06-1-1.59-3-1.59s-3,.51-3,1.54v21.6c0,1,1,1.53,3,1.53S155.83,56.73,155.83,55.71Z"/><path class="cls-7" d="M190.68,58.48q0,2.12-3,3.63a17.93,17.93,0,0,1-14.45,0q-3-1.52-3-3.63v-31c0-.61,1.2-.92,3.6-.92s3.6.31,3.6.92V55.71q0,1.53,3,1.53c2,0,3-.52,3-1.58V27.44c0-.61,1.2-.92,3.6-.92s3.6.31,3.6.92Z"/><path class="cls-8" d="M211.94,29.4c0,2.12-.27,3.17-.81,3.17h-3c-2,0-3,.51-3,1.54V62.38c0,.61-1.2.91-3.6.91s-3.6-.3-3.6-.91V31.33q0-2.11,3-3.63a15.87,15.87,0,0,1,7.22-1.51h3Q211.94,26.19,211.94,29.4Z"/><path class="cls-9" d="M236.33,58.49q0,2.11-3,3.63a18,18,0,0,1-14.45,0q-3-1.51-3-3.63v-7c0-.6,1.2-.91,3.6-.91s3.6.31,3.6.91v4.18c0,1.06,1,1.58,3,1.58s3-.51,3-1.53V49.52q0-1.59-3-1.59a15.87,15.87,0,0,1-7.22-1.51q-3-1.52-3-3.62V31.32q0-2.1,3-3.62a18,18,0,0,1,14.45,0q3,1.52,3,3.62v7c0,.61-1.2.91-3.6.91s-3.6-.3-3.6-.91V34.11c0-1-1-1.54-3-1.54s-3,.53-3,1.59V40c0,1.06,1,1.59,3,1.59a15.89,15.89,0,0,1,7.23,1.51q3,1.52,3,3.62Z"/><path class="cls-10" d="M262.77,58.49q0,2.11-3,3.63a18,18,0,0,1-14.44,0q-3-1.51-3-3.63V31.32q0-2.1,3-3.62a18,18,0,0,1,14.44,0q3,1.52,3,3.62V42.17q0,2.11-3,3.63a16,16,0,0,1-7.22,1.51h-3v8.4c0,1,1,1.53,3,1.53s3-.52,3-1.58V51.48c0-.6,1.2-.91,3.6-.91s3.6.31,3.6.91Zm-7.2-19.15V34.16c0-1.06-1-1.59-3-1.59s-3,.51-3,1.54v6.81h3C254.57,40.92,255.57,40.4,255.57,39.34Z"/><path class="cls-11" d="M289.94,70.49c0,1.41-1,2.61-3,3.62a18,18,0,0,1-14.45,0q-3-1.52-3-3.63v-7c0-.6,1.2-.91,3.6-.91s3.6.31,3.6.91v4.18c0,1.06,1,1.58,3,1.58s3-.51,3-1.53V56a8.06,8.06,0,0,1-4.22,1,12.63,12.63,0,0,1-6.36-1.52q-2.67-1.52-2.67-3.63V27.44c0-.61,1.2-.92,3.6-.92s3.6.31,3.6.92v21.5c0,1.05,1,1.58,3,1.58s3-.51,3-1.54V27.44c0-.61,1.2-.92,3.6-.92s3.6.31,3.6.92Z"/><path class="cls-12" d="M317.16,58.49q0,2.11-3,3.63a18,18,0,0,1-14.45,0q-3-1.51-3-3.63V47.64q0-2.1,3-3.62a15.87,15.87,0,0,1,7.22-1.51h3v-8.4c0-1-1-1.54-3-1.54s-3,.53-3,1.59v4.17c0,.61-1.2.91-3.6.91s-3.6-.3-3.6-.91v-7q0-2.1,3-3.62a18,18,0,0,1,14.45,0q3,1.52,3,3.62ZM310,55.71V48.89h-3c-2,0-3,.53-3,1.59v5.18c0,1.06,1,1.58,3,1.58S310,56.73,310,55.71Z"/><path class="cls-13" d="M338.37,29.4c0,2.12-.27,3.17-.81,3.17h-3c-2,0-3,.51-3,1.54V62.38c0,.61-1.2.91-3.6.91s-3.6-.3-3.6-.91V31.33q0-2.11,3-3.63a15.87,15.87,0,0,1,7.22-1.51h3Q338.37,26.19,338.37,29.4Z"/><path class="cls-14" d="M364,58.54q0,2.12-3,3.6a18.26,18.26,0,0,1-14.45,0q-3-1.48-3-3.6V31.32q0-2.1,2.66-3.62a12.68,12.68,0,0,1,6.36-1.51,8.06,8.06,0,0,1,4.22,1V15.48c0-.6,1.21-.91,3.61-.91s3.6.31,3.6.91Zm-7.21-2.83V34.11c0-1-1-1.54-3-1.54s-3,.53-3,1.59V55.71c0,1,1,1.53,3,1.53S356.75,56.73,356.75,55.71Z"/><path class="cls-5" d="M136.59,58.49q0,2.11-3,3.63a18,18,0,0,1-14.45,0q-3-1.51-3-3.63V19.32q0-2.1,3-3.62a18,18,0,0,1,14.45,0q3,1.52,3,3.62v7c0,.61-1.2.91-3.6.91s-3.6-.3-3.6-.91V22.16q0-1.59-3-1.59c-2,0-3,.51-3,1.54v33.6c0,1,1,1.53,3,1.53s3-.52,3-1.58V51.48c0-.6,1.2-.91,3.6-.91s3.6.31,3.6.91Z"/><path class="cls-6" d="M163,58.49q0,2.11-3,3.63a18,18,0,0,1-14.44,0q-3-1.51-3-3.63V31.32q0-2.1,3-3.62a18,18,0,0,1,14.44,0q3,1.52,3,3.62Zm-7.2-2.78V34.16c0-1.06-1-1.59-3-1.59s-3,.51-3,1.54v21.6c0,1,1,1.53,3,1.53S155.83,56.73,155.83,55.71Z"/><path class="cls-7" d="M190.68,58.48q0,2.12-3,3.63a17.93,17.93,0,0,1-14.45,0q-3-1.52-3-3.63v-31c0-.61,1.2-.92,3.6-.92s3.6.31,3.6.92V55.71q0,1.53,3,1.53c2,0,3-.52,3-1.58V27.44c0-.61,1.2-.92,3.6-.92s3.6.31,3.6.92Z"/><path class="cls-8" d="M211.94,29.4c0,2.12-.27,3.17-.81,3.17h-3c-2,0-3,.51-3,1.54V62.38c0,.61-1.2.91-3.6.91s-3.6-.3-3.6-.91V31.33q0-2.11,3-3.63a15.87,15.87,0,0,1,7.22-1.51h3Q211.94,26.19,211.94,29.4Z"/><path class="cls-9" d="M236.33,58.49q0,2.11-3,3.63a18,18,0,0,1-14.45,0q-3-1.51-3-3.63v-7c0-.6,1.2-.91,3.6-.91s3.6.31,3.6.91v4.18c0,1.06,1,1.58,3,1.58s3-.51,3-1.53V49.52q0-1.59-3-1.59a15.87,15.87,0,0,1-7.22-1.51q-3-1.52-3-3.62V31.32q0-2.1,3-3.62a18,18,0,0,1,14.45,0q3,1.52,3,3.62v7c0,.61-1.2.91-3.6.91s-3.6-.3-3.6-.91V34.11c0-1-1-1.54-3-1.54s-3,.53-3,1.59V40c0,1.06,1,1.59,3,1.59a15.89,15.89,0,0,1,7.23,1.51q3,1.52,3,3.62Z"/><path class="cls-10" d="M262.77,58.49q0,2.11-3,3.63a18,18,0,0,1-14.44,0q-3-1.51-3-3.63V31.32q0-2.1,3-3.62a18,18,0,0,1,14.44,0q3,1.52,3,3.62V42.17q0,2.11-3,3.63a16,16,0,0,1-7.22,1.51h-3v8.4c0,1,1,1.53,3,1.53s3-.52,3-1.58V51.48c0-.6,1.2-.91,3.6-.91s3.6.31,3.6.91Zm-7.2-19.15V34.16c0-1.06-1-1.59-3-1.59s-3,.51-3,1.54v6.81h3C254.57,40.92,255.57,40.4,255.57,39.34Z"/><path class="cls-11" d="M289.94,70.49c0,1.41-1,2.61-3,3.62a18,18,0,0,1-14.45,0q-3-1.52-3-3.63v-7c0-.6,1.2-.91,3.6-.91s3.6.31,3.6.91v4.18c0,1.06,1,1.58,3,1.58s3-.51,3-1.53V56a8.06,8.06,0,0,1-4.22,1,12.63,12.63,0,0,1-6.36-1.52q-2.67-1.52-2.67-3.63V27.44c0-.61,1.2-.92,3.6-.92s3.6.31,3.6.92v21.5c0,1.05,1,1.58,3,1.58s3-.51,3-1.54V27.44c0-.61,1.2-.92,3.6-.92s3.6.31,3.6.92Z"/><path class="cls-12" d="M317.16,58.49q0,2.11-3,3.63a18,18,0,0,1-14.45,0q-3-1.51-3-3.63V47.64q0-2.1,3-3.62a15.87,15.87,0,0,1,7.22-1.51h3v-8.4c0-1-1-1.54-3-1.54s-3,.53-3,1.59v4.17c0,.61-1.2.91-3.6.91s-3.6-.3-3.6-.91v-7q0-2.1,3-3.62a18,18,0,0,1,14.45,0q3,1.52,3,3.62ZM310,55.71V48.89h-3c-2,0-3,.53-3,1.59v5.18c0,1.06,1,1.58,3,1.58S310,56.73,310,55.71Z"/><path class="cls-13" d="M338.37,29.4c0,2.12-.27,3.17-.81,3.17h-3c-2,0-3,.51-3,1.54V62.38c0,.61-1.2.91-3.6.91s-3.6-.3-3.6-.91V31.33q0-2.11,3-3.63a15.87,15.87,0,0,1,7.22-1.51h3Q338.37,26.19,338.37,29.4Z"/><path class="cls-14" d="M364,58.54q0,2.12-3,3.6a18.26,18.26,0,0,1-14.45,0q-3-1.48-3-3.6V31.32q0-2.1,2.66-3.62a12.68,12.68,0,0,1,6.36-1.51,8.06,8.06,0,0,1,4.22,1V15.48c0-.6,1.21-.91,3.61-.91s3.6.31,3.6.91Zm-7.21-2.83V34.11c0-1-1-1.54-3-1.54s-3,.53-3,1.59V55.71c0,1,1,1.53,3,1.53S356.75,56.73,356.75,55.71Z"/></g></g></svg>